<svg height="2302" width="2500" xmlns="http://www.w3.org/2000/svg" viewBox="0 -64.72 1556.24 1501.3350000000003"><g fill-rule="evenodd"><path d="M1251.61 324.416C1142.655 60.64 841.447-64.72 578.764 44.413 316.14 153.531 191.5 455.864 300.412 719.651c108.927 263.729 410.161 389.098 672.796 279.958 262.693-109.136 387.325-411.421 278.401-675.193"/><path d="M960.948 73.92c-246.36-102.293-528.87 15.187-631.03 262.392-102.115 247.167 14.765 530.495 261.077 632.735 246.36 102.297 528.869-15.172 631.032-262.386 102.15-247.172-14.756-530.489-261.079-632.741"/><path d="M1204.01 451.527c0-237.204-191.603-429.487-428.031-429.487-236.375 0-427.968 192.283-427.968 429.487 0 237.202 191.593 429.52 427.968 429.52 236.428 0 428.032-192.318 428.032-429.52" fill="#dde460"/><path d="M776.443 33.053c-166.766 0-317.074 100.963-380.834 255.696-63.754 154.808-28.374 332.939 89.626 451.287 117.984 118.365 295.328 153.63 449.369 89.365 153.984-64.24 254.24-215.396 253.995-382.917-.12-228.572-184.558-413.924-412.156-414.177zm0 859.947c-245.5 0-444.484-199.896-444.484-446.516C331.959 199.917 530.943 0 776.443 0s444.516 199.912 444.516 446.484c0 246.61-199.016 446.516-444.516 446.516"/><path d="M1059.99 648.53c0-196.905-159.183-356.514-355.517-356.514-196.301 0-355.484 159.61-355.484 356.515 0 196.849 159.183 356.485 355.484 356.485 196.334 0 355.516-159.636 355.516-356.485" fill="#a7dcda"/><path d="M704.281 307.245c-178.114.036-325.86 138.334-338.369 316.75-12.5 178.406 114.525 336.145 290.843 361.24 176.338 25.068 341.985-91.038 379.297-265.943 21.437-100.557-3.53-205.423-67.959-285.51-64.249-79.98-161.26-126.5-263.828-126.547zm.828 713.734a374.784 374.784 0 0 1-78.582-8.26c-200.538-43.192-328.24-241.464-285.256-442.855 42.984-201.41 240.396-329.703 440.953-286.525 200.588 43.12 328.328 241.344 285.432 442.74-36.667 171.536-187.364 294.29-362.047 294.9z"/><path d="M1235.021 663.49c0-122.318-98.718-221.474-220.5-221.474s-220.5 99.156-220.5 221.473c0 122.375 98.719 221.527 220.5 221.527s220.5-99.152 220.5-221.527" fill="#f6df3f"/><path d="M1014.484 458.39c-82.656-.035-157.233 49.96-188.864 126.631-31.647 76.676-14.188 164.854 44.276 223.662 58.339 58.672 146.355 76.254 222.75 44.489 76.349-31.808 126.12-106.656 126.078-189.683-.115-113.202-91.49-204.984-204.24-205.098m0 442.598c-130.635 0-236.49-106.322-236.49-237.5s105.855-237.5 236.49-237.5c130.63 0 236.51 106.323 236.51 237.5-.13 131.151-105.963 237.391-236.51 237.5M670.104 1347.088h91.172c41.817 0 87.75-8.307 108.63-40.895 15.897-24.818 18.058-68.1-16.125-85.026-4.421-2.183-7.765-3.755-12.448-5.115l-4.729-1.49c9.745-.822 25.817-8.28 34.308-14.406 1.823-1.307 2.724-2.161 4.37-3.547 5.218-4.396 3.833-3.188 8.155-8.281 6.48-7.615 11.084-18.13 13.167-28.188 3.136-15.197 1.85-32.661-8.615-45.11-15.229-18.057-39.942-23.942-66.686-23.942h-95.699c-1.855 0-1.568.948-1.907 2.62l-5.885 28.11c-6.25 31.713-14.353 64.786-20.681 96.546l-23.866 112.057c-.614 3.09-1.104 4.86-1.724 7.923-.64 3.317-1.437 5.192-1.437 8.744m103.079-148.395h-17.568c0-2.729 2.702-14.505 3.448-18.078l11.265-54.99c19.39 0 42.59-2.182 57.787 5.662 11.573 5.989 13.016 13.964 13.016 24.942 0 16.052-10.287 28.474-20.938 33.979-13.657 7.043-26.562 8.485-47.01 8.485m-41.923 113.853l17-79.853c20.5 0 52.568-2.802 66.688 11.443 4.912 4.99 8.047 10.468 8.047 18.567 0 20.422-9.203 36.161-27.411 43.365-19.188 7.609-38.272 6.478-64.324 6.478M511.265 1346.65c15.49 0 28.532-2.994 41.344-9.571 14.027-7.194 25.527-23.136 27.198-24.235-.234 2.968-2.01 8.547-2.703 11.364-1.005 3.99-1.875 8.161-2.828 11.85-2.161 8.24-4.323 14.869-7.49 21.88-11.166 24.776-30.36 36.089-56.187 38.802-6.87.713-13.87.072-20.896.072-7.51.027-18.932-2.4-25.239-4.167-3.808-1.077-7.51-2.41-10.933-3.79-1.776-.74-3.088-1.46-5.094-2.276-1.828-.72-3.218-2-5.172-2.178-.052 2.281-1.672 7.296-2.338 9.52l-7.848 28.256 14.405 4.25c38.464 9.573 89.021 10.188 124.579-7.448 17.932-8.88 31.333-23.984 40.24-41.72 13.968-27.868 18.14-53.592 25.082-83.816l19.938-88.938c1.032-4.401 9.756-41.202 9.756-44.969-10.292-4.91-50.199-8.468-61.776-8.468-16 0-32.163 2.61-44.688 6.27-22.126 6.474-40.86 15.531-58.818 29.995-4.912 3.943-12.401 10.391-16.286 15.355l-5.995 6.99c-10.808 14.077-18.756 28.686-23.464 47.114-12.297 48.14 2.317 89.859 55.213 89.859m22.642-32.12c-19.09 0-25.495-11.364-25.495-29.891 0-28 10.905-49.807 23.463-65.697 13.094-16.563 36.453-31.787 58.146-31.787h7.359c4.63 0 6.943 1.61 10.75 1.688-.047 3.145-13.531 56.203-14.66 59.812-1.907 6.167-4.377 12.896-6.871 18.505-6.484 14.636-13.87 26.615-25.344 36.803-6.406 5.656-17.854 10.567-27.348 10.567M0 1347.088h56.016l17.396-82.135c.719-3.62 2.337-8.756 2.41-12.297 46.355 0 88.803 4.417 124.006-23.672 19.735-15.739 32.172-40.948 32.172-67.905 0-16.538-1.979-27.215-11.563-40.491-4.114-5.67-6.093-7.37-10.921-11.681-3.959-3.516-8.917-6.495-13.647-8.986-22.38-11.733-54.062-8.394-81.577-8.394H54.317c-.358 4.285-31.421 146.957-33.994 159.41-2.183 10.631-4.75 21.26-6.886 32.12l-10.15 47.522c-.563 2.39-1.08 5.238-1.694 7.905-.462 1.98-1.54 6.265-1.593 8.604m83.74-132.301c4.807-20.563 8.968-42.699 13.796-63.672.901-3.803 4.319-18.844 4.319-21.694 22.79 0 54.781-3.697 68.452 17.538 8.48 13.218 3.39 34.505-2.364 43.41-16.984 26.292-50.75 24.418-84.203 24.418M1556.24 1154.781l-41.96 38.307c-5.213 4.573-13.44 13.073-17.987 16.543l-35.613 32.224c6.987 13.197 18.64 32.432 26.6 46.348l11.467 19.646c7.173 12.864 15.68 26.396 22.44 39.182h-61.067c-.853-3.646-4.653-9.348-6.427-12.812l-16.373-31.662a1301.09 1301.09 0 0 1-3.04-6.036l-9.773-19.052c-2.32-4.442-15.094-29.557-16.414-30.532 0 2.751-4.386 22.24-5.053 25.5-4.827 23.312-10.12 52.334-15.307 74.594-16.173 0-32.48-.209-48.653.026-6.684.079-4.893-.078-3.707-6.01 7.294-36.282 16.054-73.568 23.187-109.698l33.693-160.281h53.16c0 3.13-11.28 55.26-12.493 61.036-1.347 6.547-2.867 13.199-4.227 20.084-1.773 8.88-16.573 77.135-16.64 80.63l78.467-74.802c4.467-4.188 2-3.261 10.293-3.235 18.494.022 36.96 0 55.427 0M285.833 1351.079c20.224 0 32.698-3.97 48.422-15.308 5.548-3.99 10.276-9.53 14.776-14.61 2.458-2.781 4.068-5.358 6.292-8.427 1.276-1.75 1.74-2.625 2.917-4.458 1.02-1.568 1.812-3.396 3.041-4.303 0 3.558-1.202 7.787-1.765 11.261l-4.475 27.933c-.306 2.552-1.202 3.688 1.662 3.969l51.876-.027c.817-3.557.484-9.016.973-12.65l1.172-12.986c3.604-32.364 16.364-83.233 23.323-116.088l9.994-46.098c0-1.235-3.989-1.875-5.14-2.214-6.901-2.01-11.682-2.704-18.661-3.865l-19.563-2.421c-23.672-1.188-37.708-1.547-60.928 4.406-21.577 5.542-42.26 16.234-59.468 30.276-8.536 6.984-15.469 14.171-22.421 22.782-8.923 11.052-16.39 25.38-20.939 39.061-1.254 3.735-2.53 8.193-3.322 11.98-1.896 9.047-2.635 17.135-3.479 27.135-.51 6.157 1.563 20.745 3.401 26.568 2.708 8.5 5.37 13.114 10.406 19.61 9.125 11.827 26.464 18.474 41.906 18.474m26.459-35.74c-19.943 0-25.896-13.99-25.896-32.932 0-26.954 12.068-50.324 24.11-65.344 5.16-6.418 6.723-6.959 10.942-11.11 3.604-3.532 8.49-6.906 12.984-9.609 10.943-6.573 21.839-10.385 37.537-10.385 4.5 0 9.968.828 12.958 2.27-.052 2.52-1.583 8.088-2.146 10.334-5.677 22.546-9.406 47.516-19.25 67.968l-16.214 27.37c-6.77 7.755-13.702 15.385-24.234 19.25-2.302.822-7.619 2.188-10.791 2.188m48.99-12.495l.15.177c0-.026-.203-.125-.15-.177M903.14 1289.344c0 35.599 20.324 61.73 56.01 61.73 21.12 0 34.454-4.788 48.585-15.355 5.885-4.454 10.072-9.006 14.905-14.531 2.308-2.652 4.313-5.381 6.319-8.412l6.01-9.287c0 4.448-6.808 35.828-6.808 43.62h54.318c0-3.161.433-3.65.562-6.224.798-15.099 2.058-28.625 5.063-43.672 3.136-15.844 6.317-30.604 9.89-46.166l18.965-85.802c.462-2.182 1.129-3.881 1.181-6.172-6.525-3.136-31.192-6.89-37.927-7.354-10.453-.698-10.249-.979-21.5-1.131-2.625-.025-3.292-.515-5.088-.515l-15.854 1.052c-30.448 2.624-69.271 18.802-90.646 40.099-1.333 1.312-1.718 1.412-3.084 2.573l-15.776 18.182c-9.224 12.86-13.77 22.042-18.984 37.625-3.521 10.475-6.141 25.672-6.141 39.74m83.167 26.052c-16.52 0-26.594-10.235-26.594-27.75 0-23.943 4.162-39.12 15.724-58.458 1.464-2.448 2.626-4.09 4.318-6.459l10.073-11.984c5.703-5.682 11.713-10.442 18.781-14.636 10.563-6.249 21.995-9.849 37.099-9.849 4.527 0 9.995.823 13.005 2.267-.208 2.697-1.593 7.509-2.265 10.181-.823 3.396-1.563 6.636-2.36 10.079-5.115 21.634-7.635 37.114-16.885 57.896-8.115 18.238-21.552 38.733-40.698 46.453-1.745.692-7.912 2.26-10.198 2.26M1202.85 1187.76c0-5.077 5.082-29.192 5.082-32.755l-48.11-.078c-2.182.229-1.953.177-2.234 2.281-2.75 19.37-3.801 25.213-7.833 44.713l-12.167 57.896c-2.181 9.823-4.161 19.058-6.11 28.907-1.874 9.39-4.213 19.292-6.134 28.912-.953 4.77-1.875 9.416-3.005 14.495l-3.156 14.932h53.702l4.751-22.938c.796-3.974 1.463-7.234 2.364-11.182l7.37-34.454c4.157-18.109 8.933-50.02 17.354-65.692 3.797-7.052 4.516-7.13 8.39-11.98l7.37-6.749c17.636-11.928 46.647-10.437 48.495 14.03.901 12.085-9.911 55.36-12.859 70.189l-14.276 68.776h53.14l25.032-118.49c2.672-12.49 5.953-27.604 3.005-42.276-4.032-20.136-18.922-30.833-37.714-34.062-20.026-3.438-43.13.792-58.61 11.333-9.192 6.26-15.661 13.801-22.312 22.344a44.147 44.147 0 0 1-1.536 1.848"/></g></svg>